<?xml version="1.0" encoding="UTF-8" standalone="no"?>
<!-- Created with Inkscape (http://www.inkscape.org/) -->

<svg
   width="210mm"
   height="82mm"
   viewBox="0 0 210 82"
   version="1.1"
   id="svg1"
   xml:space="preserve"
   sodipodi:docname="finalreal.svg"
   inkscape:version="1.4.2 (ebf0e940, 2025-05-08)"
   xmlns:inkscape="http://www.inkscape.org/namespaces/inkscape"
   xmlns:sodipodi="http://sodipodi.sourceforge.net/DTD/sodipodi-0.dtd"
   xmlns="http://www.w3.org/2000/svg"
   xmlns:svg="http://www.w3.org/2000/svg"><sodipodi:namedview
     id="namedview1"
     pagecolor="#ffffff"
     bordercolor="#000000"
     borderopacity="0.67843137"
     inkscape:showpageshadow="2"
     inkscape:pageopacity="0.0"
     inkscape:pagecheckerboard="0"
     inkscape:deskcolor="#d1d1d1"
     inkscape:document-units="mm"
     inkscape:zoom="0.45968013"
     inkscape:cx="376.34865"
     inkscape:cy="348.06812"
     inkscape:window-width="1168"
     inkscape:window-height="665"
     inkscape:window-x="0"
     inkscape:window-y="25"
     inkscape:window-maximized="0"
     inkscape:current-layer="layer1"
     showguides="true" /><defs
     id="defs1" /><g
     inkscape:label="Capa 1"
     inkscape:groupmode="layer"
     id="layer1"><g
       id="g1"
       transform="matrix(0.26458333,0,0,0.26458333,-30.116084,-92.942392)"><g
         fill="#ffffff"
         id="g472"
         transform="translate(-13.052557,10.877122)"><path
           d="m 356.04,379.79 0.91,0.23 q 0.21,0.4 0.04,0.73 -0.17,0.32 -0.61,0.31 -1.27,-0.01 -1.81,0.14 a 1.08,1.07 -7.6 0 0 -0.78,1.02 q -0.19,14.96 -0.12,23.53 0.03,4.18 0.83,10.07 a 0.75,0.7 61.1 0 1 -0.13,0.53 q -0.34,0.48 -0.22,1.19 a 0.39,0.38 -14.5 0 0 0.5,0.29 q 0.65,-0.21 3.01,0.16 a 0.28,0.27 -85 0 1 0.22,0.27 v 0.39 a 0.3,0.3 0 0 1 -0.3,0.3 h -2.56 a 0.65,0.64 -88.6 0 0 -0.64,0.62 q -0.33,7.71 0.53,16.04 0.11,1.1 0.52,2.21 c 0.5,1.38 -0.06,5.17 -1.76,5.65 a 2.57,2.24 -13.8 0 1 -3.15,-1.62 c -0.54,-2.7 -1.01,-4.41 -2.22,-7.07 q -0.65,-1.41 -0.92,-3.04 l -2.11,-3.99 a 8.05,7.26 -81.3 0 0 -0.81,-1.23 L 340,420.99 a 0.8,0.75 83.7 0 0 -0.21,-0.18 c -1.02,-0.62 -1.61,-0.96 -2.54,-2 q -2.98,-3.35 -6.88,-5.11 -1.42,-0.64 -1.98,-1 -1.56,-1 -1.94,-1.14 -9.34,-3.24 -19.67,-4.32 a 3.76,3.57 42.4 0 0 -1.01,0.02 q -6.16,0.85 -6.94,0.8 c -9.92,-0.74 -20.84,0.14 -29.46,-0.03 q -7.33,-0.14 -10.6,0.07 -5.39,0.34 -10.55,0.11 -8.08,-0.37 -12.77,0.63 -1.74,0.36 -3.93,0.34 a 1.16,0.01 0.7 0 0 -1.01,0 q -5.18,0.54 -7.23,1.08 a 0.13038405,0.13038405 0 0 0 0.02,0.26 l 10.37,0.93 a 0.26,0.25 -53.6 0 1 0.07,0.49 q -1.96,0.83 -2.93,0.14 a 0.87,0.86 -28.7 0 0 -0.56,-0.16 l -6.55,0.46 a 0.15,0.14 88 0 0 -0.13,0.15 q 0,0.2 -0.29,0.29 -5.74,1.7 -10.89,5.5 a 6.04,5.42 -5.8 0 0 -0.64,0.52 q -1.41,1.27 -4.42,7.06 -1.36,2.63 0.46,3.81 a 1.59,1.58 -30.8 0 0 1.01,0.25 q 3.34,-0.3 1.89,1.04 a 0.67,0.65 -62.7 0 1 -0.51,0.17 l -3.08,-0.27 a 1.55,1.55 0 0 0 -1.69,1.53 q -0.03,4.41 -0.11,7.81 -0.04,1.19 0.72,3.43 a 0.44,0.44 0 0 0 0.52,0.3 q 0.19,-0.05 0.31,-0.48 a 0.52,0.51 7.2 0 1 0.5,-0.38 h 1.55 a 0.32,0.31 -67.4 0 1 0.22,0.54 q -0.6,0.6 -1.7,0.69 a 1.08,1.07 -2.3 0 0 -0.99,1.07 v 0.39 a 1.08,1.07 84.9 0 0 1.26,1.06 q 1.25,-0.23 2.84,0.32 a 0.33,0.33 0 0 1 -0.11,0.65 h -2.47 a 0.37,0.37 0 0 0 -0.33,0.54 l 3.3,6.47 a 1.78,1.75 7.7 0 0 0.44,0.57 c 0.93,0.79 1.7,1.03 2.35,2.39 q 0.74,1.53 3.06,2.06 a 1.01,1.01 0 0 1 0.75,0.7 l 0.36,1.16 a 0.82,0.82 0 0 0 0.57,0.56 q 5.28,1.51 8.14,4.52 a 2.2,2.12 76.7 0 0 0.87,0.56 l 8.19,2.73 a 0.62,0.62 0 0 1 0.31,0.22 q 0.55,0.72 1.62,1.25 a 0.56,0.56 0 0 0 0.79,-0.67 l -0.24,-0.81 a 0.73,0.73 0 0 1 0.47,-0.91 c 0.77,-0.26 1.67,0.17 1.74,1.05 q 0.05,0.7 0.1,0.83 a 0.93,0.91 -0.5 0 0 0.59,0.57 c 3.12,1.04 6.21,3.26 9.76,3.04 a 1.81,1.76 -32.2 0 1 0.99,0.21 l 2.64,1.37 a 0.52,0.46 59.9 0 0 0.21,0.07 q 5.21,0.81 11.43,2.88 a 4.84,4.63 56.6 0 0 1,0.23 q 7.46,0.99 13.55,2.45 2.58,0.61 5.23,-0.5 a 1.98,1.8 84.3 0 1 2.45,2.21 q -0.04,0.28 0.01,0.31 a 2.72,2.69 -27.8 0 0 1.38,0.42 q 4.95,0.17 8.44,2 a 3.45,3.39 62.4 0 0 1.21,0.39 q 7.48,0.97 12.44,4.56 a 2.1,1.98 70.7 0 0 0.56,0.29 l 10.94,3.88 a 0.63,0.5 65.9 0 1 0.19,0.1 l 10.78,7.76 a 0.72,0.72 0 0 1 0.2,0.2 c 1.67,2.22 3.97,3.26 5.84,5.33 q 5.96,6.6 10.04,15.25 a 0.54,0.53 -22.9 0 0 0.67,0.27 q 0.66,-0.26 0.88,-0.24 0.74,0.06 0.01,0.05 -0.62,-0.01 -0.42,0.51 a 0.41,0.4 -7.8 0 0 0.35,0.26 l 2.54,0.23 a 0.15,0.14 83.3 0 1 0.12,0.1 l 0.08,0.27 a 0.27,0.26 -11.4 0 1 -0.23,0.34 q -1.19,0.11 -1.97,0.59 a 0.75,0.74 -25.8 0 0 -0.32,0.89 q 2.99,8.4 3.95,18.2 a 0.55,0.55 0 0 0 0.78,0.45 q 1.17,-0.53 3.53,0.19 a 0.32,0.32 0 0 1 0.08,0.58 q -1.27,0.81 -3.03,-0.05 a 0.76,0.75 -76.9 0 0 -1.09,0.68 v 6.28 a 0.44,0.43 81.6 0 0 0.56,0.42 l 2.14,-0.66 a 0.49,0.49 0 0 0 0.33,-0.61 l -1.49,-4.86 a 0.32,0.32 0 0 1 0.33,-0.41 l 0.54,0.05 a 0.48,0.48 0 0 1 0.44,0.48 v 5.05 a 0.63,0.62 8 0 0 0.46,0.6 l 1.16,0.31 a 0.3,0.29 11.4 0 1 0.22,0.32 l -0.03,0.38 a 0.26,0.26 0 0 1 -0.26,0.24 h -3.94 a 0.61,0.6 90 0 0 -0.6,0.61 l -0.02,4.77 a 1.04,1.02 60.5 0 1 -0.14,0.52 q -1.08,1.82 -0.5,4.21 a 1.03,1.02 60.7 0 1 -0.26,0.95 q -0.84,0.86 -0.57,2.47 -0.3,0.38 -0.4,0.72 l -2.34,6.95 a 0.53,0.52 -84.8 0 0 0.57,0.69 q 0.64,-0.09 1.26,0.09 a 0.53,0.52 52.9 0 1 -0.14,1.03 h -1.67 a 0.82,0.82 0 0 0 -0.74,0.47 l -3.09,6.57 a 0.29,0.24 85.3 0 1 -0.05,0.07 q -0.78,0.68 -1.12,1.44 a 0.39,0.39 0 0 0 0.43,0.55 q 1.63,-0.32 3.45,0.09 a 0.25,0.25 0 0 1 0.04,0.48 q -2.39,1 -4.2,0.51 a 1.02,1.01 22.7 0 0 -1.14,0.46 c -4.26,7.22 -10.41,11.8 -17.49,16.41 -7.1,4.61 -14.36,7.36 -22.75,9.02 l -5.3,1.09 -13.15,1.36 a 1.09,1.03 19 0 0 -0.6,0.27 q -0.13,0.12 -0.23,0.22 a 0.63,0.63 0 0 1 -0.86,0.04 q -1.07,-0.9 -2.6,-0.76 -4.81,0.43 -9.25,0.47 -15.88,0.14 -31.82,0.21 -2.43,1.52 -5.12,0.48 a 0.26,0.24 10 0 1 -0.16,-0.21 q -0.02,-0.21 -0.18,-0.23 -11.42,-1.15 -24.22,-0.72 -1.06,0.03 -2.26,-0.01 -6.01,-0.21 -22.81,-0.09 -0.76,0 -3.42,0.66 a 1.1,1.08 -88.4 0 0 -0.77,0.74 q -0.27,0.89 -0.23,1.61 a 0.83,0.83 0 0 1 -0.98,0.86 q -1.43,-0.29 -2.72,-0.1 -0.3,-1.18 1.8,-0.85 a 0.41,0.41 0 0 0 0.46,-0.29 l 0.18,-0.69 a 0.42,0.41 12.2 0 0 -0.34,-0.52 l -7.43,-1.17 -0.4,-2.61 a 0.65,0.64 89.4 0 0 -0.56,-0.55 q -3.86,-0.52 -4.98,-1.36 -0.09,-0.55 -0.26,-0.74 l 5.71,0.16 a 0.42,0.42 0 0 0 0.43,-0.38 l 0.02,-0.27 a 0.4,0.4 0 0 0 -0.36,-0.44 l -5.71,-0.51 a 0.18,0.18 0 0 1 -0.08,-0.33 q 0.32,-0.22 0.73,-0.35 2.89,0.38 5.29,-0.81 a 1.06,1.04 -13.2 0 0 0.59,-0.94 v -10.75 a 1.23,1.21 6.2 0 0 -0.97,-1.19 q -0.74,-0.16 -0.96,-0.05 -2.08,-0.1 -2.69,-0.68 a 0.46,0.46 0 0 1 0.32,-0.79 h 3.56 a 0.51,0.51 0 0 0 0.49,-0.66 l -0.48,-1.57 a 0.77,0.76 -12.6 0 0 -0.85,-0.53 q -1.49,0.22 -2.62,-0.41 0.4,-1 2.74,-1.01 a 0.48,0.47 71.7 0 0 0.38,-0.76 c -1.07,-1.41 0.16,-2.12 -0.36,-3.45 q -0.24,-0.61 -0.13,-1.34 0.39,-2.76 0.59,-7.91 0.51,-1.85 0.35,-3.73 0.26,-1.16 -0.14,-1.99 l -0.25,-14.64 q -0.04,-0.02 -0.07,-0.04 -0.06,-1.3 0.94,-1.28 1.16,0.03 1.46,1.19 0.23,1.72 1.21,3.04 2.41,7.16 6.32,13.48 c 1.49,2.41 4.02,4.74 5.39,5.9 a 1.47,1.43 17 0 1 0.51,0.93 l 0.03,0.26 a 1.19,1.16 -79.3 0 0 0.6,0.9 q 2.8,1.55 5.74,3.05 0.83,0.42 1.34,1.11 0.77,1.05 1.62,0.69 0.93,-0.41 2.09,0.08 1.05,0.44 2.86,0.47 a 0.02138924,0.01069462 -76.7 0 1 0.01,0.03 q -0.01,0.01 -0.02,0.02 a 0.12,0.1 12.4 0 1 -0.1,0.05 l -3.83,-0.27 a 0.09219544,0.09219544 0 0 0 -0.04,0.18 q 2.07,0.69 3.04,2.34 a 1.66,1.65 -9.2 0 0 1.09,0.78 q 14.15,3.07 21.68,4.1 4.6,0.64 15.3,1.04 a 3.98,3.54 -34.3 0 1 0.78,0.1 q 2.6,0.63 5.81,0.36 a 0.39,0.39 0 0 0 0.33,-0.53 q -0.36,-0.95 0.14,-1.52 a 0.87,0.76 58.8 0 1 1.35,0.43 q 0.43,1.33 1.47,1.34 10.68,0.09 25.87,0.1 c 6.23,0.01 12.72,-0.46 18.17,-1.74 q 10.08,-2.37 19.38,-9.84 1.64,-1.33 4.59,-4.68 a 0.41,0.41 0 0 0 -0.2,-0.66 l -1.81,-0.49 a 0.09,0.08 -78.9 0 1 -0.06,-0.1 l 0.03,-0.34 a 0.28,0.27 2.2 0 1 0.28,-0.25 h 2.58 a 1.03,1.02 -74.4 0 0 0.88,-0.5 q 3.44,-5.7 5.43,-12.02 c 0.54,-1.73 0.74,-4.48 0.91,-6.35 a 0.26,0.25 -81.7 0 0 -0.19,-0.26 q -0.21,-0.06 -0.34,-0.16 a 0.42,0.41 45.3 0 1 0,-0.65 q 0.4,-0.32 0.4,-0.38 0.15,-2.27 -0.65,-7.78 a 0.7,0.7 0 0 0 -0.9,-0.57 l -0.89,0.27 a 0.45,0.45 0 0 1 -0.57,-0.33 q -0.14,-0.68 1.09,-1.22 a 0.75,0.75 0 0 0 0.41,-0.91 q -2.74,-8.64 -9.74,-15 a 0.3,0.3 0 0 0 -0.49,0.15 q -0.09,0.3 -0.33,0.25 a 0.85,0.77 -68.4 0 1 -0.46,-1.21 q 0.01,-0.01 0.24,-0.12 a 0.25,0.24 -41.3 0 0 0.03,-0.42 l -7.11,-5.12 a 2.52,2.42 72.7 0 0 -0.58,-0.32 q -1.48,-0.58 -3.38,-1.98 -2.33,-1.72 -4.99,-2.23 -1.65,-0.32 -7.95,-1.34 -1.3,-0.22 -1.25,-1.27 a 0.6,0.59 -81.6 0 0 -0.44,-0.6 l -10.49,-2.93 a 1.09,1 47.7 0 0 -0.32,-0.03 q -4.84,0.29 -8.92,-1.22 a 2.03,1.99 -8.3 0 1 -0.89,-0.65 q -1.02,-1.35 -2.15,-1.5 -3.86,-0.49 -12.78,-0.7 a 2.08,2.05 -28.8 0 1 -1.02,-0.29 c -4.04,-2.38 -8.94,-3.07 -12.62,-4.87 q -4.32,-2.11 -8.76,-3.3 -8.64,-2.3 -15.74,-3.75 a 0.43,0.42 83.1 0 1 -0.31,-0.25 q -0.05,-0.13 -0.07,-0.15 A 1.1,1.07 -5.4 0 0 213,495.9 q -1.17,-0.4 -7.76,-3.14 -3.41,-1.42 -11.54,-8.29 -1.43,-1.62 -3.21,-2.79 c -0.62,-0.41 -0.63,-0.84 -1.08,-1.54 a 0.64,0.63 61.3 0 0 -0.8,-0.24 q -0.87,0.39 -2.72,0.14 a 0.53,0.53 0 0 1 -0.22,-0.97 q 0.77,-0.49 1.9,-0.6 a 0.47,0.46 -20 0 0 0.34,-0.72 l -7.2,-10.6 c 0.52,-1.31 -0.67,-2.37 -1.02,-3.24 q -1.39,-3.46 -2.14,-6.6 a 0.71,0.71 0 0 0 -1.04,-0.45 q -1.07,0.63 -1.89,-0.08 a 0.71,0.71 0 0 0 -0.68,-0.14 l -0.98,0.3 a 0.26,0.26 0 0 1 -0.29,-0.39 q 0.18,-0.28 0.57,-0.32 2.1,-0.2 3.2,-0.55 a 0.63,0.63 0 0 0 0.3,-1.01 c -0.91,-1.07 -0.26,-2.39 -0.73,-2.95 q -0.3,-0.37 -0.43,-0.69 a 1.31,0.1 84.5 0 1 -0.17,-0.96 l -0.97,-8.23 q -1.04,-1.36 -5.56,-1 0.16,-0.5 -0.1,-0.82 l 5.41,-0.33 a 0.61,0.6 87.2 0 0 0.57,-0.64 l -0.27,-4.87 a 1.17,1.05 56.1 0 1 0.06,-0.42 l 0.62,-1.74 a 0.34,0.34 0 0 0 -0.29,-0.45 l -8.11,-0.72 a 0.35,0.35 0 0 1 -0.32,-0.36 q 0.01,-0.24 0.1,-0.4 0.08,-0.13 0.42,-0.19 3.49,-0.55 5.55,-0.37 1.14,0.1 1.8,0.01 1.27,-0.16 1.18,-0.72 a 1.99,1.68 -4.4 0 0 -1.94,-1.4 q -5.42,0.04 -10.21,-0.58 a 0.32,0.32 0 0 1 -0.05,-0.63 q 2.07,-0.62 4.16,-0.04 a 2.46,2.44 -43.4 0 0 1.25,0.03 q 3.55,-0.85 5.85,-0.22 a 0.71,0.71 0 0 0 0.71,-0.19 q 1.25,-1.27 1.2,-2.11 a 0.28,0.28 0 0 0 -0.48,-0.17 q -1.25,1.3 -2.82,-0.09 a 0.56,0.56 0 0 1 0.01,-0.85 q 1.1,-0.93 3.91,-0.92 l 2.82,-7.84 a 0.45,0.45 0 0 0 -0.33,-0.6 l -2.37,-0.48 q 0.93,-0.73 2.91,-0.86 a 1.55,1.54 -78.4 0 0 1.3,-0.86 l 2.3,-4.62 5.94,-7.69 a 1.89,1.76 1.9 0 1 0.48,-0.42 q 2.61,-1.57 4.17,-3.79 a 3.31,3.24 2 0 1 1.03,-0.94 l 7.63,-4.4 a 0.74,0.66 -85.2 0 0 0.19,-0.18 c 1.21,-1.79 3.14,-1.63 4.89,-1.74 a 0.37,0.37 0 0 0 0.34,-0.27 l 0.09,-0.32 a 0.42,0.41 6.8 0 0 -0.41,-0.52 q -1.87,0.02 -3.62,-0.8 a 1.49,1.46 46.9 0 0 -1.13,-0.05 q -1.05,0.36 -2.09,0.09 -1.24,-0.25 -2.57,0.03 a 0.29,0.29 0 0 1 -0.35,-0.28 v -0.34 a 0.43,0.41 -4 0 1 0.37,-0.41 l 1.72,-0.19 a 0.73,0.72 -3.1 0 0 0.65,-0.72 v -1.32 a 1.32,1.3 70.1 0 1 0.46,-1 q 3.07,-2.54 7.15,-2.08 1.1,1.31 0,1.82 -0.9,0.41 -1.52,-0.5 -0.27,-0.41 0.14,-0.68 0.28,-0.19 0.16,-0.44 a 0.42,0.4 71.1 0 0 -0.43,-0.22 q -2.49,0.34 -5.2,2.29 a 0.94,0.93 -12.6 0 0 -0.38,0.59 l -0.29,1.46 a 0.54,0.54 0 0 0 0.57,0.65 q 3.7,-0.24 6.28,-0.14 1.02,0.04 1.82,-1.36 a 0.72,0.72 0 0 1 0.95,-0.29 l 0.33,0.12 a 0.98,0.87 48.6 0 0 0.4,0.05 l 7.69,-0.87 a 0.21,0.2 -0.2 0 0 0.18,-0.17 q 0.12,-0.94 -1.92,-0.2 A 1.23,1.2 52.5 0 1 216.33,381 q -1.17,-0.83 -3.14,-0.9 a 0.34,0.34 0 0 1 -0.33,-0.31 l -0.05,-0.42 a 0.42,0.41 86.9 0 1 0.41,-0.46 h 13.24 a 0.81,0.81 0 0 0 0.79,-0.65 l 0.09,-0.47 a 0.53,0.53 0 0 0 -0.52,-0.64 h -3.83 a 0.4,0.4 0 0 1 -0.39,-0.48 l 0.06,-0.32 a 0.26,0.25 5.5 0 1 0.25,-0.2 l 18.38,-0.47 a 1.28,1.07 -36.1 0 1 0.31,0.02 q 2.69,0.45 5.22,0.15 a 0.75,0.7 52.5 0 1 0.37,0.06 q 0.67,0.34 0.68,0.6 a 0.11,0.11 0 0 0 0.11,0.11 l 21.12,-0.52 a 0.02,0.01 0 0 0 0.02,-0.01 q 0,-0.01 -0.01,-0.01 -2.14,-0.08 -4.29,-0.08 a 0.24,0.23 60.6 0 1 -0.13,-0.04 q -0.01,-0.01 -0.03,-0.02 a 0.01,0.01 0 0 1 0,-0.02 q 5.12,-0.17 10.93,0.47 8.66,0.94 10.87,0.96 8.1,0.05 13.08,0 a 4.67,4.61 -39 0 1 0.91,0.09 q 3.15,0.65 7.04,0.4 0.33,-0.02 0.48,0.03 a 0.52,0.52 0 0 1 -0.14,1 q -0.21,0.02 -0.13,-0.98 0,-0.03 -0.35,-0.02 -8.67,0.19 -17.78,-0.39 a 0.21,0.05 -37.5 0 0 -0.13,0.06 q -0.01,0.01 -0.03,0.01 a 0.06,0.04 22.7 0 0 0.05,0.07 q 8.99,0.93 18.2,0.99 a 0.01,0.01 0 0 1 0,0.02 c -1.13,0.22 -2.84,-0.1 -3.94,0.23 a 0.03,0.03 0 0 0 0.01,0.05 l 34.5,0.33 a 0.16,0.16 0 0 0 0.16,-0.14 l 0.04,-0.21 a 0.12,0.11 8.3 0 0 -0.1,-0.12 l -8.67,-1.61 a 0.23,0.22 77.1 0 0 -0.22,0.36 q 0.05,0.06 -0.04,0.6 -0.03,0.2 -0.33,0.17 -2.79,-0.26 -10.31,-0.28 -1.74,-0.01 -2.77,0.6 a 0.51,0.5 -33.7 0 1 -0.66,-0.13 q -0.28,-0.39 -0.19,-0.93 a 0.61,0.61 0 0 1 0.45,-0.5 q 4.01,-1.03 8.94,-0.27 a 0.28,0.27 -2.1 0 0 0.31,-0.33 q -0.02,-0.08 -0.2,-0.16 a 0.04,0.04 0 0 1 0.01,-0.07 l 3.97,-0.44 a 0.13,0.13 0 0 1 0.09,0.24 q -0.17,0.13 -0.21,0.2 a 0.11,0.11 0 0 0 0.08,0.17 l 10.48,0.46 a 0.07,0.07 0 0 1 0.07,0.08 q -0.01,0.26 -0.34,0.33 -0.15,0.03 -0.03,0.24 0.28,0.47 1.37,0 a 0.69,0.68 57.5 0 1 0.78,0.18 q 0.3,0.34 1.71,0.41 6.06,0.29 13.42,1.7 z"
           id="path441" /><path
           d="m 638.88,475.28 q -0.26,1.13 0.74,1.98 -0.41,2.89 0.54,5.77 a 0.2,0.18 -19.4 0 0 0.25,0.11 l 0.28,-0.1 a 0.35,0.35 0 0 0 0.2,-0.48 q -0.59,-1.31 0.03,-1.18 a 0.2,0.19 84.4 0 1 0.15,0.13 l 0.59,1.63 a 0.4,0.4 0 0 1 -0.42,0.54 q -0.26,-0.03 -0.36,-0.04 a 0.61,0.61 0 0 0 -0.66,0.64 q 0.28,4.65 0.73,15.98 0.22,5.73 -0.77,12.74 -0.08,0.54 0.09,0.99 a 0.49,0.49 0 0 1 0.03,0.29 l -2,10.1 a 1.13,1.12 -82.1 0 0 1,1.33 l 5.39,0.48 a 0.2,0.2 0 0 1 0.17,0.26 l -0.19,0.53 a 0.36,0.35 11.9 0 1 -0.36,0.23 l -5.61,-0.5 a 0.98,0.98 0 0 0 -1.03,0.71 l -4.5,16.71 q -0.02,0.06 -0.04,0.12 l -3.79,9.96 a 0.2,0.17 -82.4 0 1 -0.13,0.12 q -0.08,0.02 -0.19,-0.03 a 0.1,0.1 0 0 0 -0.14,0.04 q -7.02,13.64 -11.03,19.04 -3.9,5.28 -15.91,15.99 c -2.77,2.48 -6.01,4.28 -8.48,6.89 a 3.91,3.9 6.4 0 1 -0.78,0.62 c -3.78,2.25 -5.71,3.92 -8.86,5.34 q -0.87,0.4 -5.8,3.48 -3.29,2.06 -13.61,6.35 c -5.29,2.19 -11.41,3.12 -16.66,5.3 q -0.33,0.13 -1.53,-0.05 a 3.15,2.92 -43.4 0 0 -0.95,0.01 q -15.17,2.84 -28.21,2.96 -11.7,0.1 -27.26,-1.65 a 6.01,6 -47.2 0 0 -1.79,0.07 l -2.42,0.45 a 0.67,0.67 0 0 1 -0.8,-0.72 l 0.02,-0.26 a 0.91,0.91 0 0 0 -0.73,-0.98 q -6.92,-1.38 -9.33,-1.85 c -9.7,-1.9 -14.84,-4.6 -25.47,-9.41 -1.76,-0.79 -4.14,-0.98 -5.19,-1.64 a 0.42,0.41 -38.9 0 1 0.08,-0.74 l 1.25,-0.46 a 0.34,0.33 51.1 0 0 0.06,-0.6 q -4.92,-3.08 -10.31,-3.55 a 0.25,0.15 58.3 0 1 -0.08,-0.04 q -0.12,-0.13 -0.13,-0.31 a 0.4,0.4 0 0 1 0.4,-0.42 q 1.15,0.01 1.59,-0.18 a 0.59,0.59 0 0 0 0.1,-1.03 q -8.89,-5.99 -15.65,-13.36 -5.39,-5.9 -10.3,-12.64 c -0.25,-0.34 -0.32,-0.74 -0.61,-1.18 q -5.74,-8.83 -7,-11.81 c -2.6,-6.18 -5.49,-12.21 -7.36,-18.65 q -6.44,-22.18 -5.31,-45.29 c 0.01,-1.6 -0.94,-3.42 0.24,-4.68 a 0.98,0.96 70.9 0 0 0.26,-0.55 l 0.96,-7.08 0.43,-2.18 a 0.54,0.54 0 0 0 -0.53,-0.65 q -1.87,-0.03 -2,-0.69 a 0.23,0.23 0 0 1 0.1,-0.25 l 0.43,-0.28 a 0.19,0.18 -57.2 0 1 0.13,-0.03 l 1.39,0.27 a 0.62,0.62 0 0 0 0.73,-0.58 q 0.01,-0.36 0.5,-1.26 a 0.47,0.47 0 0 0 -0.39,-0.7 l -6.85,-0.33 -1.73,-0.12 q -0.53,-0.5 0.77,-0.61 5.29,-0.41 8.51,-0.59 a 0.56,0.56 0 0 0 0.44,-0.27 q 0.1,-0.18 0.03,-0.73 a 0.51,0.51 0 0 0 -0.45,-0.43 q -0.49,-0.04 -0.67,-0.46 a 0.42,0.41 -18.1 0 1 0.29,-0.57 q 0.97,-0.22 1.1,-0.38 a 0.39,0.38 22.8 0 0 -0.25,-0.61 q -3.43,-0.54 -5.83,0.86 a 0.7,0.68 -38.1 0 1 -0.82,-0.09 q -1.88,-1.75 -4.87,-0.67 -1.08,-0.64 -2.34,-0.49 a 0.21,0.21 0 0 1 -0.24,-0.18 l -0.01,-0.01 a 0.22,0.2 83.5 0 1 0.18,-0.25 l 3.59,-0.4 q 2.43,0.5 3.89,-1.58 2.78,1.9 7.13,0.75 a 0.84,0.84 0 0 0 0.62,-0.81 v -1.95 a 1.9,1.73 57.6 0 1 0.11,-0.63 q 0.94,-2.46 5.77,-14.63 3.83,-9.63 11.19,-21.3 4.1,-6.48 12.65,-15.74 l 8.69,-8.05 q 1.27,-0.26 1.73,-0.95 a 0.37,0.37 0 0 0 -0.42,-0.56 l -0.25,0.08 a 0.7,0.7 0 0 1 -0.59,-1.25 l 2.08,-1.37 a 0.63,0.6 78.7 0 0 0.28,-0.44 q 0.15,-1.23 1.7,-1.39 2.89,-0.31 6.44,-1.63 a 0.18,0.18 0 0 0 -0.06,-0.35 l -11.68,-0.39 q 0.39,-1.3 4.27,-1.06 7.42,0.34 14.51,-1.15 a 0.22090722,0.22090722 0 0 0 -0.04,-0.44 l -7.57,-0.4 a 1.36,1.33 37.6 0 0 -0.43,0.05 q -2.03,0.54 -2.52,-1.13 l 5.88,-0.5 7.52,-0.58 a 0.22,0.21 -3.8 0 0 0.21,-0.23 v -0.01 a 0.34,0.34 0 0 0 -0.39,-0.31 q -1.52,0.23 -2.87,-0.44 a 0.42,0.41 58 0 1 0.18,-0.79 h 11.78 a 1.18,1.18 0 0 0 1.16,-0.95 l 0.1,-0.47 a 0.8,0.79 2.1 0 0 -0.88,-0.94 q -3.26,0.39 -1.86,-1.37 5.1,0.11 9.63,-1.2 a 0.38,0.38 0 0 0 -0.01,-0.74 q -0.54,-0.14 -1.18,-0.03 a 0.61,0.61 0 0 1 -0.7,-0.6 v -0.36 a 0.59,0.59 0 0 1 0.55,-0.59 q 3.77,-0.31 9.14,-0.23 2.18,0.03 7.3,-1.42 4.07,-1.14 6.97,-0.79 c 2.93,0.35 5.13,-0.57 8.15,-0.04 a 1.09,1.09 0 0 0 1.07,-0.43 q 0.93,-1.27 1.96,-0.18 a 0.55,0.49 -18.1 0 0 0.36,0.16 l 29.15,0.48 a 0.15,0.15 0 0 1 0.11,0.25 l -0.23,0.23 a 0.01118034,0.01118034 0 0 0 0.01,0.02 c 4.53,0.16 9.45,1.48 14.42,1.91 q 1.2,0.1 4.18,0.83 16.8,4.1 31.38,11.83 1.19,0.63 2.1,1.86 a 2.11,1.98 83.7 0 0 0.68,0.58 q 4.11,2.22 9.3,6.37 4.35,3.48 8.47,7.61 8.08,8.09 13.15,14.49 a 1.14,1.13 -19.1 0 0 0.89,0.43 h 2.62 a 0.42,0.42 0 0 1 0.42,0.42 v 0.5 a 0.34,0.34 0 0 1 -0.33,0.34 q -1.78,0.06 -2.04,0.23 a 0.33,0.32 -52.8 0 0 0.08,0.59 q 1.39,0.37 1.86,0.24 a 0.85,0.85 0 0 1 0.85,1.4 q -0.33,0.37 -0.02,1.26 0.13,0.37 -0.21,0.55 a 0.34,0.33 -28.5 0 0 -0.14,0.45 l 6.51,11.45 a 0.05,0.03 -13.3 0 0 0.03,0.01 q 0.08,-0.04 0.13,-0.26 a 0.02,0.02 0 0 1 0.04,0 l 0.12,0.53 a 4.9,3.57 49.3 0 0 0.18,0.62 l 6.56,18.02 a 5.58,5.34 34.7 0 1 0.33,1.62 q 0.11,1.95 1.12,3.79 a 2.92,2.74 -67.5 0 1 0.29,0.77 z M 437.38,401.4 a 0.11,0.11 0 0 0 -0.11,-0.11 0.11,0.11 0 0 0 -0.11,0.11 0.11,0.11 0 0 0 0.11,0.11 0.11,0.11 0 0 0 0.11,-0.11 z m 6.28,34.17 -3.81,5.43 a 0.4,0.4 0 0 0 0.31,0.63 q 3.65,0.13 1.72,1.31 l -2.79,0.16 a 0.98,0.97 9.3 0 0 -0.86,0.61 l -0.71,1.78 a 5.11,5.02 -18 0 1 -0.38,0.73 q -2.5,3.76 -4.57,9.59 -4.02,11.3 -5.77,21.75 a 0.72,0.71 12.2 0 0 0.52,0.8 q 0.41,0.11 1.08,-0.08 a 0.12,0.12 0 0 1 0.15,0.11 l 0.03,0.27 a 0.27,0.27 0 0 1 -0.24,0.3 q -0.93,0.12 -1.69,0.56 -0.47,0.28 -0.49,1.61 -0.02,1.09 -0.25,2.46 l 5.1,0.56 q 0.41,0.64 0.36,1.32 l -5.24,0.52 a 0.38,0.34 12 0 0 -0.26,0.15 q -0.22,0.3 -0.07,0.57 a 0.36,0.34 76.4 0 0 0.25,0.16 l 1.65,0.14 a 0.69,0.69 0 0 1 0.62,0.64 q 0.01,0.17 0.03,0.36 0.04,0.49 0.66,-0.17 0.4,-0.43 0.79,-0.5 -1.54,6.94 -1.52,14.04 a 0.21,0.2 1.4 0 1 -0.22,0.2 0.09,0.08 4.1 0 1 -0.08,-0.08 l 0.39,-12.52 a 0.72,0.69 -73.9 0 0 -0.33,-0.62 l -0.11,-0.02 a 0.13,0.12 5.8 0 0 -0.15,0.12 l -0.44,11.12 a 0.07,0.04 -31.7 0 1 -0.02,0.04 q -0.01,0 -0.02,0.01 a 0.04,0.03 -11.7 0 1 -0.05,-0.03 l -0.15,-11.16 a 0.38,0.38 0 0 0 -0.49,-0.36 l -0.41,0.13 a 0.68,0.68 0 0 0 -0.53,0.61 q -2.29,25.55 5.99,49.7 a 0.52,0.51 74.6 0 0 0.59,0.34 q 1.53,-0.33 3.7,0.27 a 0.35,0.35 0 0 1 0,0.68 q -0.82,0.21 -3.06,0.08 a 0.54,0.54 0 0 0 -0.53,0.74 q 3.67,9.34 9.35,17.81 3.75,5.6 3.92,5.89 1.52,2.66 4.36,5.42 3.99,3.89 7.57,7.43 a 7.21,6.82 79.3 0 0 1.74,1.26 q 1.23,0.61 2.83,2.46 0.58,0.67 5.11,3.42 a 5.63,5.61 62.2 0 0 2.6,0.81 l 15.98,0.95 a 0.11,0.11 0 0 1 0.11,0.09 l 0.2,0.4 a 0.29,0.29 0 0 1 -0.26,0.42 h -13.23 a 0.4,0.4 0 0 0 -0.29,0.68 q 0.85,0.87 2.99,1.34 a 3.19,3.07 65.6 0 1 0.98,0.39 q 2.39,1.48 4.55,1.47 4.87,-0.02 7.89,0.9 a 0.59,0.59 0 0 1 0.21,1.01 l -0.85,0.72 a 0.27,0.26 -65.2 0 0 0.17,0.47 q 5.91,-0.1 9.76,1.5 a 5.64,5.36 -30 0 0 1.7,0.41 q 6.56,0.49 15.95,1.23 2.93,0.23 12.62,-0.34 c 5.85,-0.34 12.5,-2.44 17.72,-3.06 q 0.26,-0.03 0.61,-0.28 0.15,-0.1 0.42,-0.4 a 2.24,2.23 -77.3 0 1 0.99,-0.63 q 2.2,-0.66 3.11,-1.52 a 1.45,1.45 0 0 1 1.05,-0.4 c 2.15,0.08 3.68,-1.65 5.74,-2.3 5.61,-1.79 9.87,-5.09 16.55,-9.67 q 3.5,-2.4 11.5,-11.97 a 2.5,2.2 -17.5 0 0 0.35,-0.58 c 0.76,-1.77 2.23,-2.87 3.18,-4.41 q 3.71,-6.04 4.7,-8.38 a 0.4,0.39 88.1 0 0 -0.54,-0.51 q -0.85,0.43 -2.24,0.11 a 0.32,0.32 0 0 1 -0.23,-0.42 l 0.16,-0.45 a 0.21,0.2 15.9 0 1 0.24,-0.13 q 2.78,0.63 3.91,-1.07 a 0.25,0.25 0 0 0 -0.19,-0.39 l -4.85,-0.43 a 0.07,0.07 0 0 1 -0.05,-0.11 l 0.17,-0.3 a 0.14,0.13 8.2 0 1 0.1,-0.07 l 5.18,-0.73 a 0.8,0.79 -83.1 0 0 0.64,-0.51 l 3.97,-10.36 a 0.06,0.05 -67.5 0 0 -0.02,-0.06 l -0.45,-0.29 a 0.37,0.36 -84.2 0 0 -0.47,0.39 q 0.03,0.42 -0.05,0.58 a 0.27,0.27 0 0 1 -0.5,-0.12 q -0.02,-0.73 1.02,-1.09 a 1.14,1.14 0 0 0 0.71,-0.71 q 1.95,-5.83 1.95,-10.96 a 1.11,1.1 70.7 0 1 0.41,-0.86 q 0.18,-0.14 0.2,-0.17 a 0.66,0.64 67 0 0 0.11,-0.29 l 1.9,-14.49 a 0.59,0.59 0 0 0 -0.58,-0.67 l -5.22,-0.08 a 0.22,0.21 0.1 0 1 -0.21,-0.2 q -0.01,-0.12 -0.02,-0.26 0.73,-0.45 1.86,-0.7 l 3.28,-0.09 a 0.85,0.85 0 0 0 0.82,-0.77 l 0.26,-2.87 a 0.93,0.93 0 0 0 -0.84,-1.01 l -2.77,-0.24 a 0.32,0.32 0 0 1 -0.29,-0.34 l 0.04,-0.39 a 0.39,0.39 0 0 1 0.43,-0.36 l 2.85,0.25 a 0.6,0.6 0 0 0 0.65,-0.6 v -1.76 a 0.44,0.43 79.5 0 0 -0.59,-0.41 q -1.22,0.45 -2.04,-0.31 a 0.41,0.4 56.6 0 1 0.13,-0.67 q 0.96,-0.37 1.42,-0.38 a 0.66,0.65 -1.4 0 0 0.63,-0.65 v -8.42 a 0.89,0.88 -3.7 0 0 -1,-0.87 l -2.72,0.36 -6.25,-0.69 a 0.25,0.22 -48.9 0 1 0,-0.45 q 0.23,-0.09 8.83,-0.42 a 0.23,0.23 0 0 0 0.22,-0.26 l -0.35,-3.13 a 0.21,0.21 0 0 0 -0.22,-0.19 l -9.34,0.08 a 0.39,0.3 -52 0 0 -0.16,0.04 q -0.05,0.08 -0.11,0.13 a 0.64,0.55 -56 0 1 -0.51,0.14 l -3.6,-0.85 0.04,-0.4 q 1.14,-0.44 2.14,0.06 a 0.82,0.82 0 0 0 1.03,-0.23 q 0.39,-0.49 0.93,0 a 0.56,0.56 0 0 0 0.45,0.15 l 4.02,-0.49 q 2.16,0.53 4.12,0.1 a 0.68,0.68 0 0 0 0.54,-0.6 q 0.2,-2.03 -0.1,-3.39 -1.22,-5.5 -3.65,-14.18 a 1.87,1.87 0 0 0 -0.61,-0.93 q -0.8,-0.65 -0.66,-1.38 0.19,-0.97 -0.31,-2.14 -2.1,-4.91 -2.41,-5.66 a 1.07,1.07 0 0 0 -0.88,-0.64 l -2.91,-0.26 a 0.46,0.45 29.7 0 1 -0.23,-0.82 q 1.03,-0.73 2.46,-1 a 0.42,0.41 -19.8 0 0 0.29,-0.6 q -4.02,-7.63 -9.18,-14.15 a 2.71,2.6 -8.2 0 0 -1.17,-0.84 l -2.04,-0.73 a 0.27,0.27 0 0 1 0.09,-0.52 h 1.55 a 0.68,0.68 0 0 0 0.31,-1.28 q -1.51,-0.78 -2.15,-1.85 a 1.66,1.61 -0.9 0 0 -0.67,-0.63 l -2.03,-1.04 a 1.04,1.02 -72.7 0 1 -0.55,-1.06 l 0.04,-0.31 a 1.3,1.3 0 0 0 -0.61,-1.28 q -1.97,-1.22 -3.49,-3.06 a 2.96,2.93 82.2 0 0 -1.04,-0.8 l -3.39,-1.6 a 0.2,0.17 -4.1 0 1 -0.08,-0.06 q -1.44,-1.37 -3.23,-2 a 0.36,0.36 0 0 1 -0.15,-0.58 q 0.01,-0.01 0.23,-0.01 a 0.14,0.13 -10.2 0 0 0.13,-0.18 c -0.54,-1.39 -2.32,-1.35 -3.18,-1.92 q -3.34,-2.21 -3.45,-2.4 a 0.87,0.84 78.8 0 0 -0.62,-0.43 l -6.06,-0.91 a 0.27,0.27 0 0 1 -0.22,-0.21 v -0.01 a 0.3,0.3 0 0 1 0.3,-0.3 h 2.96 a 0.45,0.45 0 0 0 0.16,-0.87 c -1.12,-0.43 -2.52,-0.53 -3.82,-1.15 C 536.09,402 517.2,401.83 499,403.34 q -2.58,0.22 -7.49,1.26 -3.56,0.76 -7.44,1.6 -8.93,1.95 -18.05,7.87 -13.19,8.58 -22.36,21.5 z m 177.3843,-8.6768 a 0.16,0.08 -166.7 0 0 0.1373,0.1147 0.16,0.08 -166.7 0 0 0.1741,-0.0411 0.16,0.08 -166.7 0 0 -0.1373,-0.1147 0.16,0.08 -166.7 0 0 -0.1741,0.0411 z"
           id="path442" /><path
           d="m 890.44,384.89 -3.55,2.84 q -2.85,1.69 -5.24,4.69 -5.03,6.87 -5.14,14.09 -0.25,17.07 -0.09,34.18 0.01,1.05 -0.01,2.08 0.13,0.92 -0.14,1.19 l 0.13,22.78 q -0.01,0.11 -0.02,0.22 v 15.33 l -0.06,6.53 -0.01,7.21 0.02,2.02 0.1,3.75 a 0.47,0.47 0 0 0 0.59,0.44 l 1,-0.26 q 0.39,0.4 0.93,0.39 -0.32,1.62 -1.45,0.9 a 0.79,0.78 16.3 0 0 -1.21,0.66 v 5.8 a 1.32,1.32 0 0 0 1.34,1.32 l 2.44,-0.04 q 0.73,0.42 1.97,0.52 2.03,-0.44 3.79,0.07 a 0.19,0.19 0 0 1 0.02,0.36 q -1.78,0.75 -3.89,0.29 l -3.93,0.46 -1.42,-0.09 a 0.44,0.43 88.8 0 0 -0.46,0.49 l 0.29,2.56 a 0.52,0.51 -6 0 0 0.58,0.46 q 0.42,-0.04 1.05,0.09 a 0.24,0.24 0 0 1 0.17,0.29 h -0.01 a 0.19,0.19 0 0 1 -0.22,0.14 q -1.11,-0.2 -1.72,0.58 a 0.41,0.41 0 0 0 0.3,0.66 l 1.9,0.13 q 0.45,0.57 0.04,0.99 -0.28,0.28 -0.61,0.25 -0.63,-0.07 -0.68,-0.06 a 1.35,1.35 0 0 0 -0.04,2.64 l 2.72,0.6 a 0.39,0.38 51.2 0 1 -0.08,0.76 h -2.87 a 0.8,0.8 0 0 0 -0.78,1 q 0.47,1.92 0.28,4.01 -0.23,0.87 -0.12,1.82 -0.14,0.7 -0.02,1.28 a 0.66,0.66 0 0 0 0.61,0.55 l 1.97,0.13 q 0.26,0.14 0.51,0.27 -0.26,0.81 -2.37,0.75 a 0.73,0.73 0 0 0 -0.75,0.73 v 0.34 a 0.59,0.59 0 0 0 0.76,0.56 q 3.54,-1.05 6.76,-0.24 l -6.92,1.54 a 0.58,0.58 0 0 0 -0.46,0.57 l 0.04,2.7 -0.13,4.31 a 0.52,0.51 82.6 0 0 0.66,0.51 q 0.56,-0.16 0.99,-0.56 a 0.39,0.39 0 0 1 0.66,0.29 v 0.74 a 0.44,0.44 0 0 1 -0.52,0.43 l -1.09,-0.22 a 0.63,0.63 0 0 0 -0.75,0.62 v 42.54 a 0.22,0.21 61.8 0 1 -0.03,0.11 q -0.47,0.68 -0.1,1.38 a 0.68,0.67 -13.8 0 0 0.62,0.37 q 0.89,-0.01 1.53,0.34 a 0.34,0.34 0 0 1 -0.04,0.61 q -0.75,0.29 -1.34,0.2 a 0.52,0.52 0 0 0 -0.6,0.51 v 2.51 a 0.92,0.91 -82.7 0 0 0.68,0.89 q 1.77,0.48 3.47,0.11 0.15,0.08 0.29,0.15 0.15,0.48 -0.57,0.9 -0.43,-0.05 -1.1,0.1 l -2.16,0.29 a 0.61,0.6 86.7 0 0 -0.52,0.59 l -0.11,13.13 -0.22,4.43 a 0.95,0.95 0 0 1 -1.04,0.91 q -7.16,-0.72 -14.06,0.46 -1.82,0.44 -2.27,-0.45 l 1.61,-0.65 a 0.53,0.52 57.8 0 0 0.19,-0.85 q -2.07,-2.21 -2.92,-3.2 c -2.01,-2.35 -3.67,-5.31 -5.58,-7.21 q -1.85,-1.84 -3.1,-3.54 -0.75,-1.03 -5.04,-5.41 -1.5,-1.53 -11.07,-12.77 a 1.57,1.51 -16.7 0 0 -1.03,-0.53 l -2.99,-0.27 a 0.41,0.41 0 0 1 -0.38,-0.45 l 0.03,-0.31 a 0.24,0.24 0 0 1 0.26,-0.22 l 2.01,0.18 a 0.37,0.37 0 0 0 0.33,-0.59 c -2.1,-2.81 -4.58,-5.02 -6.96,-7.81 q -9.6,-11.28 -12.43,-14.36 -15.67,-17.03 -29.41,-33.92 -1.93,-2.36 -6.57,-7.1 c -2.31,-2.36 -4.28,-5.32 -6.16,-7.07 q -1.9,-1.77 -4.78,-5.26 -3.65,-4.42 -5.62,-6.49 c -4.83,-5.08 -8.74,-10.49 -13.42,-15.26 q -1.59,-1.61 -3.45,-4.05 -1.34,-1.77 -3.28,-3.94 -5.73,-6.4 -23.8,-27.44 -3.89,-4.52 -9.37,-6.64 a 0.26,0.25 -78.1 0 0 -0.35,0.23 l -0.26,14.37 a 0.64,0.54 -58.7 0 0 0.03,0.19 q 0.26,0.79 0.22,2.21 -0.13,5.89 -0.08,19 0.03,9.16 -0.04,19.02 -0.36,46.08 -0.02,63.98 0.1,5.31 -0.03,8.25 -0.13,3.02 0,6.01 a 0.62,0.61 -1 0 0 0.62,0.59 h 1.75 a 0.21,0.21 0 0 1 0.21,0.19 l 0.04,0.29 a 0.49,0.49 0 0 1 -0.53,0.54 l -1.67,-0.15 a 0.55,0.55 0 0 0 -0.59,0.62 q 0.31,2.48 0.14,12.11 -0.06,3.91 0.71,7.52 0.81,3.82 2.41,7.17 3.2,6.7 10.09,8.45 1.34,-0.08 0.47,2.83 -4,0.87 -8.26,0.76 -7.91,-0.21 -8.31,-0.19 -5.75,0.27 -11.5,0.21 c -5.78,-0.05 -12.21,0.67 -18.4,0.57 L 670,614.97 q -1.18,-0.06 -1.19,-1.45 1.83,-2.48 6.06,-4.42 2.68,-2.69 4.42,-6.03 3.34,-6.39 4.05,-13.59 a 0.57,0.56 -80 0 0 -0.42,-0.61 q -1.3,-0.33 -0.45,-0.76 1.21,0.25 1.04,-1.61 l -0.04,-4.06 0.1,-3.6 a 0.79,0.79 0 0 0 -0.64,-0.8 l -0.75,-0.15 a 0.41,0.41 0 0 1 0.06,-0.81 q 1.62,-0.09 1.51,-1.78 0.12,-7.17 0.08,-10.05 -0.01,-0.48 -0.29,-1.3 a 1.81,1.72 -52 0 1 -0.08,-0.83 q 0.52,-3.84 -0.02,-7.38 a 3.65,3.65 0 0 1 0,-1.14 q 0.3,-1.83 0.28,-4.1 -0.08,-7.3 0.14,-19.12 a 2.04,2 36.3 0 0 -0.12,-0.74 q -0.44,-1.24 -0.17,-2.47 a 0.73,0.73 0 0 0 -0.72,-0.88 l -3.89,0.03 -8.59,0.14 -5.73,-0.23 a 0.53,0.49 2.7 0 1 -0.51,-0.52 v -0.04 a 0.58,0.56 0.5 0 1 0.57,-0.54 l 12.49,-0.2 3.11,-0.06 q 1.44,0.36 2.74,0.06 a 0.71,0.7 83.6 0 0 0.53,-0.67 q 0.13,-10.04 -0.01,-11.4 c -0.22,-1.97 0.07,-3.52 0.07,-5.37 q -0.01,-5.38 -0.1,-15.76 -0.01,-1.65 -2.5,-1.3 l -8.53,-0.03 a 0.5,0.5 0 0 1 -0.49,-0.59 l 0.06,-0.31 a 0.56,0.55 -85.2 0 1 0.51,-0.44 l 8.89,-0.24 q 2.27,0.83 2.04,-3.68 0.12,-0.72 -0.39,-1.17 a 0.41,0.4 -47.4 0 1 -0.02,-0.59 q 0.34,-0.35 0.35,-0.37 a 1.95,1.8 -37.5 0 0 0.11,-0.63 l 0.05,-22.89 a 0.63,0.62 -7.8 0 0 -0.8,-0.6 c -0.87,0.24 -2.01,0.4 -2.57,-0.43 a 0.32,0.32 0 0 1 0.31,-0.5 q 1.54,0.2 2.76,-0.32 a 0.81,0.79 78 0 0 0.49,-0.77 l -0.25,-8.58 a 0.37,0.35 -67.3 0 0 -0.09,-0.24 l -1.01,-1.19 a 0.41,0.41 0 0 1 0.21,-0.66 q 0.78,-0.19 0.78,-0.74 a 0.63,0.62 -84.1 0 0 -0.48,-0.6 q -0.21,-0.05 -0.37,-0.36 -0.11,-0.21 0.37,-0.64 0.63,-0.56 0.63,-1.14 -0.02,-11.87 0.04,-14.85 0.02,-0.79 -0.3,-0.92 -0.34,-0.13 -1.09,-0.06 a 0.28,0.28 0 0 1 -0.21,-0.07 q -0.3,-0.32 -0.15,-0.62 a 0.18,0.17 -75 0 1 0.15,-0.09 h 1.15 a 0.46,0.46 0 0 0 0.46,-0.46 v -3.64 a 0.29,0.29 0 0 0 -0.38,-0.27 q -2.6,0.89 -2.59,-0.45 0.01,-1.22 2.07,-0.62 a 0.64,0.64 0 0 0 0.82,-0.58 q 0.39,-9.03 -0.76,-17.39 a 1.19,1.17 -35.5 0 1 0.13,-0.74 c 0.82,-1.55 -0.48,-1.74 -0.14,-2.96 q 0.04,-0.15 -0.11,-0.96 -1.37,-7.53 -6.95,-12.36 -1.4,-0.44 -2.68,-1.47 -0.1,-0.92 0.24,-1.74 l 7.58,-0.24 20.41,-0.14 1.8,0.08 110.9,127.71 1.55,1.73 a 0.31,0.31 0 0 0 0.54,-0.15 l 0.06,-0.27 a 0.37,0.36 -82.2 0 1 0.39,-0.3 l 10.25,0.84 q -3.66,0.6 -7.26,-0.11 -0.51,-0.1 -3.05,0.61 a 0.17,0.17 0 0 0 -0.08,0.27 l 30.58,36.12 a 1.83,1.81 -4.2 0 0 0.47,0.4 q 0.07,0.03 3.17,2.96 a 2.92,2.24 10.9 0 1 0.32,0.36 q 0.89,1.24 3.22,2.66 a 0.25,0.25 0 0 0 0.38,-0.21 l 0.01,-12.6 a 0.29,0.29 0 0 0 -0.33,-0.29 q -0.2,0.04 -0.65,-0.19 a 0.27,0.26 57.5 0 1 0.11,-0.5 q 0.8,-0.02 0.9,-0.45 a 0.1,0.08 -38 0 0 0.01,-0.04 v -17.28 a 0.51,0.51 0 0 0 -0.51,-0.51 l -3.85,-0.05 a 0.01,0.01 0 0 1 -0.01,-0.01 l -0.25,-0.41 a 0.13,0.12 71.3 0 1 0.09,-0.19 l 3.8,-0.43 a 0.73,0.72 -3.6 0 0 0.64,-0.72 l 0.03,-3.51 a 0.77,0.76 -5.1 0 0 -0.9,-0.75 q -0.44,0.14 -1.51,-0.09 a 0.29,0.29 0 0 1 -0.08,-0.54 q 0.97,-0.58 2.32,-0.65 a 0.59,0.58 -16.8 0 0 0.48,-0.88 q -0.75,-1.27 -0.23,-2.55 a 0.95,0.95 0 0 0 -1.02,-1.3 q -1.7,0.26 -1.96,-0.58 a 0.67,0.67 0 0 1 0.2,-0.69 q 0.79,-0.67 1.89,-0.2 a 0.62,0.61 -78.6 0 0 0.85,-0.57 v -8.46 a 0.5,0.5 0 0 0 -0.59,-0.49 q -1.85,0.37 -1.07,-0.67 a 0.3,0.29 -74.6 0 1 0.22,-0.13 l 0.75,-0.09 a 0.79,0.79 0 0 0 0.69,-0.62 q 0.28,-1.33 -0.51,-1.87 a 0.49,0.48 -67.8 0 1 -0.21,-0.51 q 0.12,-0.47 0.43,-0.42 a 0.35,0.34 3.7 0 0 0.39,-0.34 l 0.02,-34.28 A 1.09,1.09 0 0 0 854.15,461 q -0.4,-0.25 -1.45,-0.08 a 0.51,0.51 0 0 1 -0.57,-0.36 q -0.08,-0.27 -0.01,-0.58 a 0.49,0.48 8.3 0 1 0.51,-0.37 q 0.68,0.05 1.17,-0.06 a 0.58,0.58 0 0 0 -0.05,-1.15 l -4.02,-0.47 q -0.87,0.08 -1.27,-0.08 a 0.45,0.45 0 0 1 0.17,-0.86 h 5.4 a 0.34,0.34 0 0 0 0.34,-0.31 l 0.03,-0.38 a 0.15,0.15 0 0 0 -0.13,-0.16 l -2.57,-0.23 a 0.38,0.38 0 0 1 -0.3,-0.56 q 0.19,-0.33 0.67,-0.27 l 1.99,-0.04 a 0.47,0.46 -0.6 0 0 0.46,-0.46 v -9.2 a 0.45,0.44 0 0 0 -0.45,-0.44 h -1.56 a 0.35,0.35 0 0 1 -0.12,-0.67 q 1.13,-0.42 1.87,-0.36 a 0.41,0.41 0 0 0 0.44,-0.46 l -0.23,-2.09 a 0.39,0.39 0 0 0 -0.35,-0.34 l -1.49,-0.13 a 0.32,0.31 24.4 0 1 -0.2,-0.53 q 0.5,-0.53 1.23,-0.43 a 1.01,0.9 -88.1 0 0 1.02,-1.07 c -0.42,-7.88 -0.14,-15.02 -0.09,-23.7 q 0.03,-5.1 0.02,-5.17 a 0.65,0.64 -1.7 0 0 -0.57,-0.53 l -3.75,-0.37 a 0.47,0.46 43.3 0 1 -0.03,-0.92 q 0.58,-0.09 3.44,-0.06 a 0.6,0.59 90 0 0 0.6,-0.61 c -0.13,-7.82 -3.71,-16 -11.41,-18.96 q -0.27,-0.4 -1.02,-0.42 -0.38,-0.41 -1.6,-0.58 l -0.58,-0.12 -1.82,-0.39 a 0.89,0.88 6.1 0 1 -0.7,-0.86 v -2.25 a 0.75,0.75 0 0 1 0.76,-0.75 l 3.87,0.01 7.46,0.16 36.97,-0.07 q 0.99,0.13 1.74,-0.02 0.83,0.04 1.64,-0.24 a 0.48,0.48 0 0 1 0.63,0.39 z"
           id="path443" /><ellipse
           cx="0"
           cy="0"
           transform="rotate(-4.6,5185.1275,-5265.7573)"
           rx="0.13"
           ry="0.059999999"
           id="ellipse443" /><path
           d="m 679.71,400.95 h -1.96 a 0.42,0.41 32.5 0 1 -0.18,-0.79 q 1.23,-0.56 2.32,0.24 a 0.3,0.3 0 0 1 -0.18,0.55 z"
           id="path444" /><path
           d="m 373.03,401.79 2.63,0.42 a 0.11011358,0.11011358 0 0 1 -0.01,0.22 l -9.7,0.58 q -1.13,0.48 -1.71,-0.09 l 0.24,-1.55 z"
           id="path445" /><path
           d="m 676.28,405.05 q 3.38,-0.35 2.19,0.99 -1.45,0.5 -2.82,-0.02 a 0.47,0.47 0 0 1 -0.09,-0.83 q 0.29,-0.19 0.72,-0.14 z"
           id="path446" /><path
           d="m 180.64,410.48 q -0.02,0.28 -0.63,0.57 a 0.87,0.66 -0.4 0 1 -1.2,-0.9 q 0.25,-0.3 1.28,-0.27 0.59,0.01 0.55,0.6 z"
           id="path447" /><ellipse
           cx="0"
           cy="0"
           transform="rotate(-2.8,8539.1776,-3305.9602)"
           rx="1.71"
           ry="0.83999997"
           id="ellipse447" /><path
           d="m 323.53,416.61 q -2.02,0.22 -3.21,-0.76 3.88,-2.44 3.21,0.76 z"
           id="path448" /><path
           d="m 672.97,420.08 q -2.49,-0.18 -1.52,-1.08 3.35,-0.19 1.52,1.08 z"
           id="path449" /><ellipse
           cx="0"
           cy="0"
           transform="rotate(-1,24603.023,-38028.729)"
           rx="2.6500001"
           ry="0.41999999"
           id="ellipse449" /><circle
           cx="573.12"
           cy="425.37"
           r="0.11"
           id="circle449" /><path
           d="m 578.9,431.2 -1.11,-1.92 a 0.25,0.24 -89 0 1 0.34,-0.33 q 1.66,1.02 1.32,2.18 a 0.3,0.3 0 0 1 -0.55,0.07 z"
           id="path450" /><path
           d="m 628.8,429.23 q 2.66,-0.5 4.04,0.67 l -5.16,0.03 a 0.3,0.3 0 0 1 -0.15,-0.56 q 0.5,-0.28 1.27,-0.14 z"
           id="path451" /><path
           d="m 666.13,441.2 a 0.17,0.17 0 0 1 -0.17,0.17 h -1.79 a 5.74,0.48 -0.2 0 1 -5.74,-0.46 v -0.16 a 5.74,0.48 -0.2 0 1 5.74,-0.5 h 1.79 a 0.17,0.17 0 0 1 0.17,0.17 z"
           id="path452" /><path
           d="m 713.95,463.82 q 0.75,-0.71 1.36,-0.65 a 0.87,0.83 -55.4 0 1 0.25,1.61 q -0.4,0.22 -1.5,-0.28 a 0.42,0.41 -54.7 0 1 -0.11,-0.68 z"
           id="path453" /><ellipse
           cx="0"
           cy="0"
           transform="rotate(-178.1,123.07828,231.30324)"
           rx="1.53"
           ry="0.62"
           id="ellipse453" /><ellipse
           cx="0"
           cy="0"
           transform="rotate(-164.8,154.48176,219.30429)"
           rx="1.38"
           ry="0.79000002"
           id="ellipse454" /><path
           d="m 383.58,474.19 q 0.34,1.14 -1.39,1.31 -1.04,0.04 -2.22,-0.37 a 0.62,0.62 0 0 1 0.25,-1.2 z"
           id="path454" /><path
           d="m 738.39,480.24 a 0.38,0.38 0 0 1 -0.01,0.71 q -0.54,0.2 -1.85,-0.21 a 0.28,0.28 0 0 1 -0.03,-0.52 q 0.88,-0.38 1.89,0.02 z"
           id="path455" /><rect
           x="-2.73"
           y="-0.75"
           transform="rotate(2.2,-12502.062,5159.8429)"
           width="5.46"
           height="1.5"
           rx="0.72000003"
           id="rect455" /><path
           d="m 387.63,486.06 q 0.6,0.31 0.3,1.43 l -5.45,-0.27 q -1.2,-0.61 -1.52,0.03 -0.51,-0.13 -0.95,-0.07 l -3.33,-0.12 q -2.89,-0.22 -5.88,-0.19 a 0.16,0.11 8.1 0 1 -0.18,-0.16 q 0.02,-0.04 0.05,-0.07 a 0.31,0.26 -59.5 0 1 0.17,-0.06 l 10.67,-0.32 z"
           id="path456" /><path
           d="m 204.12,500.16 -6.28,-0.33 a 0.26,0.25 -53.2 0 1 -0.06,-0.49 q 0.01,0 1.21,-0.08 l 13.6,-0.23 a 0.26,0.25 77 0 1 0.23,0.15 q 0.14,0.3 -0.16,0.6 a 0.41,0.41 0 0 1 -0.29,0.12 z"
           id="path457" /><path
           d="m 338.68,504 q -0.65,1.06 -2.18,0.86 a 0.76,0.75 43.2 0 1 -0.05,-1.49 q 0.02,0 1.88,0 a 0.41,0.41 0 0 1 0.35,0.63 z"
           id="path458" /><path
           d="m 296.12,524.02 0.26,-0.95 a 0.6,0.6 0 0 0 -0.43,-0.74 l -0.83,-0.23 a 0.62,0.62 0 0 1 0.19,-1.22 q 1.67,0.08 2.82,2.06 a 0.73,0.73 0 0 1 -0.23,0.98 l -1,0.66 a 0.52,0.51 -9.2 0 1 -0.78,-0.56 z"
           id="path459" /><ellipse
           cx="0"
           cy="0"
           transform="rotate(-163.4,188.12755,241.15238)"
           rx="1.1799999"
           ry="0.89999998"
           id="ellipse459" /><path
           d="m 359.85,540.03 q -1,0.08 -1.72,-0.25 -0.07,-0.37 0.05,-0.65 0.12,-0.27 0.5,-0.39 1.41,-0.46 1.17,1.29 z"
           id="path460" /><path
           d="m 710.45,552.07 2.63,0.04 13.38,0.13 a 0.35,0.35 0 0 1 0.34,0.35 v 0.01 a 0.35,0.34 90 0 1 -0.34,0.35 l -12.52,-0.03 -3.71,-0.11 q -0.2,-0.03 -0.34,-0.07 a 0.29,0.29 0 0 1 -0.04,-0.55 q 0.28,-0.11 0.6,-0.12 z"
           id="path461" /><path
           d="m 317.79,564.05 q -1.04,0.13 -1.84,-0.35 0.59,-0.66 1.34,-0.86 0.62,-0.17 0.72,0.31 0.07,0.36 -0.22,0.9 z"
           id="path462" /><path
           d="m 251.83,589.95 a 0.48,0.48 0 0 1 0.07,0.86 q -1.12,0.64 -1.62,0.06 a 0.6,0.54 63.5 0 1 0.26,-0.95 q 0.83,-0.14 1.29,0.03 z"
           id="path463" /><path
           d="m 712.25,600.4 q 0.67,-0.22 1.62,-0.15 l 6.39,-0.14 a 0.13,0.13 0 0 1 0.14,0.13 v 0.3 a 0.22,0.22 0 0 1 -0.21,0.22 l -7.68,0.21 a 0.32,0.3 -20 0 1 -0.23,-0.1 q -0.18,-0.2 -0.03,-0.47 z"
           id="path464" /><path
           d="m 717.58,603.84 q -3.18,0.66 -3.72,-0.99 4.6,-0.65 3.72,0.99 z"
           id="path465" /><path
           d="m 433.18,603.75 q -0.05,-0.19 -0.02,-0.35 0.04,-0.21 0.22,-0.29 0.52,-0.24 1.04,-0.16 a 0.48,0.47 37.4 0 1 0.13,0.91 q -0.48,0.21 -1.37,-0.11 z"
           id="path466" /><path
           d="m 171.73,603.76 q 0.52,0.05 0.61,0.11 0.56,0.34 0.29,0.94 -0.43,0.93 -1.56,0.92 -0.6,-1.74 0.66,-1.97 z"
           id="path467" /><ellipse
           cx="0"
           cy="0"
           transform="rotate(-146,518.08882,172.43408)"
           rx="1.3"
           ry="0.69999999"
           id="ellipse467" /><path
           d="m 346.81,606.52 -5.78,0.57 -7.39,-0.42 a 0.2,0.2 0 0 1 -0.08,-0.37 q 0.28,-0.15 0.6,-0.13 z"
           id="path468" /><path
           d="m 192.89,618.24 1.12,1.13 a 0.44,0.43 -22.4 0 1 -0.31,0.74 h -4.12 a 0.6,0.6 0 0 1 -0.34,-1.1 q 0.54,-0.36 1.45,0.05 a 1.06,1.05 30.2 0 0 1.27,-0.33 q 0.02,-0.02 0.15,-0.33 a 0.48,0.48 0 0 1 0.78,-0.16 z"
           id="path469" /><path
           d="m 198.31,618.42 q 6.05,1.62 3.2,1.99 -0.76,0.57 -1.45,0.75 a 0.71,0.71 0 0 1 -0.77,-0.29 l -1.61,-2.45 a 0.4,0.4 0 0 1 0.55,-0.55 q 1.29,0.85 0.08,0.55 z"
           id="path470" /><circle
           cx="257.54999"
           cy="618.79999"
           r="0.98000002"
           id="circle470" /><path
           d="m 277.26,621.93 q -0.41,1.19 -1.61,0.49 a 0.96,0.96 0 0 0 -0.5,-0.14 l -10.09,-0.07 -0.58,-0.34 a 0.37,0.37 0 0 1 -0.01,-0.63 q 0.33,-0.21 0.83,-0.17 5.1,0.43 8.65,-0.34 a 1.13,1.11 59.8 0 1 0.99,0.27 q 0.59,0.54 1.09,0.12 0.48,-0.4 0.94,-0.12 0.39,0.24 0.29,0.93 z"
           id="path471" /><path
           d="m 283.28,621.77 q 0.51,0.17 0.61,0.46 0.13,0.38 -0.36,0.6 -0.64,0.27 -1.57,-0.15 -0.19,-0.32 0.11,-0.59 0.46,-0.41 1.21,-0.32 z"
           id="path472" /></g></g></g></svg>
